<svg width="423" height="74" viewBox="0 0 423 74" fill="none" xmlns="http://www.w3.org/2000/svg">
<path d="M55.791 37.5996V63.625C54.9121 64.9271 53.5124 66.3919 51.5918 68.0195C49.6712 69.6146 47.0182 71.0143 43.6328 72.2188C40.2799 73.3906 35.9505 73.9766 30.6445 73.9766C26.3151 73.9766 22.3275 73.2279 18.6816 71.7305C15.0684 70.2005 11.9271 67.987 9.25781 65.0898C6.62109 62.1602 4.57031 58.612 3.10547 54.4453C1.67318 50.2461 0.957031 45.4935 0.957031 40.1875V34.6699C0.957031 29.3639 1.57552 24.6276 2.8125 20.4609C4.08203 16.2943 5.9375 12.7624 8.37891 9.86523C10.8203 6.93555 13.8151 4.72201 17.3633 3.22461C20.9115 1.69466 24.9805 0.929688 29.5703 0.929688C35.0065 0.929688 39.5475 1.8737 43.1934 3.76172C46.8717 5.61719 49.7363 8.1888 51.7871 11.4766C53.8704 14.7643 55.2051 18.5078 55.791 22.707H46.3672C45.944 20.1354 45.0977 17.7917 43.8281 15.6758C42.5911 13.5599 40.8171 11.8672 38.5059 10.5977C36.1947 9.29557 33.2161 8.64453 29.5703 8.64453C26.2826 8.64453 23.4342 9.24674 21.0254 10.4512C18.6165 11.6556 16.6309 13.3809 15.0684 15.627C13.5059 17.873 12.334 20.5911 11.5527 23.7812C10.804 26.9714 10.4297 30.5684 10.4297 34.5723V40.1875C10.4297 44.2891 10.9017 47.9512 11.8457 51.1738C12.8223 54.3965 14.2057 57.1471 15.9961 59.4258C17.7865 61.6719 19.9186 63.3809 22.3926 64.5527C24.8991 65.7246 27.666 66.3105 30.6934 66.3105C34.0462 66.3105 36.7643 66.0339 38.8477 65.4805C40.931 64.8945 42.5586 64.2109 43.7305 63.4297C44.9023 62.6159 45.7975 61.8509 46.416 61.1348V45.2168H29.9609V37.5996H55.791ZM97.7344 8.20508L74.1992 73H64.5801L91.6797 1.90625H97.8809L97.7344 8.20508ZM117.461 73L93.877 8.20508L93.7305 1.90625H99.9316L127.129 73H117.461ZM116.24 46.6816V54.3965H76.2988V46.6816H116.24ZM161.992 39.748H143.975L143.877 32.1797H160.234C162.936 32.1797 165.296 31.724 167.314 30.8125C169.333 29.901 170.895 28.599 172.002 26.9062C173.141 25.181 173.711 23.1302 173.711 20.7539C173.711 18.1497 173.206 16.0339 172.197 14.4062C171.221 12.7461 169.707 11.5417 167.656 10.793C165.638 10.0117 163.066 9.62109 159.941 9.62109H146.074V73H136.65V1.90625H159.941C163.587 1.90625 166.842 2.2806 169.707 3.0293C172.572 3.74544 174.997 4.88477 176.982 6.44727C179.001 7.97721 180.531 9.93034 181.572 12.3066C182.614 14.6829 183.135 17.5312 183.135 20.8516C183.135 23.7812 182.386 26.4342 180.889 28.8105C179.391 31.1543 177.308 33.0749 174.639 34.5723C172.002 36.0697 168.91 37.0299 165.361 37.4531L161.992 39.748ZM161.553 73H140.264L145.586 65.334H161.553C164.548 65.334 167.087 64.8132 169.17 63.7715C171.286 62.7298 172.897 61.265 174.004 59.377C175.111 57.4564 175.664 55.194 175.664 52.5898C175.664 49.9531 175.192 47.6745 174.248 45.7539C173.304 43.8333 171.823 42.3522 169.805 41.3105C167.786 40.2689 165.182 39.748 161.992 39.748H148.564L148.662 32.1797H167.021L169.023 34.9141C172.441 35.207 175.339 36.1836 177.715 37.8438C180.091 39.4714 181.898 41.5547 183.135 44.0938C184.404 46.6328 185.039 49.4323 185.039 52.4922C185.039 56.9193 184.062 60.6628 182.109 63.7227C180.189 66.75 177.471 69.0612 173.955 70.6562C170.439 72.2188 166.305 73 161.553 73ZM209.062 1.90625V73H199.639V1.90625H209.062ZM253.398 8.20508L229.863 73H220.244L247.344 1.90625H253.545L253.398 8.20508ZM273.125 73L249.541 8.20508L249.395 1.90625H255.596L282.793 73H273.125ZM271.904 46.6816V54.3965H231.963V46.6816H271.904ZM422.539 1.90625V73H413.115V1.90625H422.539Z" fill="#ECD6C4"/>
<path d="M318.584 1.90625V73H309.307V1.90625H318.584ZM341.436 1.90625V9.62109H286.504V1.90625H341.436ZM379.033 1.90625V73H369.756V1.90625H379.033ZM401.885 1.90625V9.62109H346.953V1.90625H401.885Z" fill="#8E5D52"/>
</svg>
